# xmcd
#
# Track frame offsets:
#	150
#	21815
#	49917
#
# Disc length: 952 seconds
#
# Revision: 1
# Processed by: cddbd v1.5.1PL0 Copyright (c) Steve Scherf et al.
# Submitted via: CDex 1.50Beta5
#
DISCID=1e03b603
DTITLE=吉岡秀隆 - 月
DYEAR=1900
DGENRE=Pop
TTITLE0=月
TTITLE1=僕を探しに
TTITLE2=月(オリジナルカラオケ)
EXTD=
EXTT0=
EXTT1=
EXTT2=
PLAYORDER=
